<svg width="51" height="60" viewBox="0 0 51 60" fill="none" xmlns="http://www.w3.org/2000/svg">
<path d="M27 60L26.25 51H25.5C18.4 51 12.375 48.525 7.425 43.575C2.475 38.625 0 32.6 0 25.5C0 18.4 2.475 12.375 7.425 7.425C12.375 2.475 18.4 0 25.5 0C29.05 0 32.363 0.662 35.439 1.986C38.515 3.31 41.215 5.135 43.539 7.461C45.863 9.787 47.687 12.487 49.011 15.561C50.335 18.635 50.998 21.948 51 25.5C51 33.1 48.725 39.913 44.175 45.939C39.625 51.965 33.9 56.652 27 60ZM25.425 41.925C26.275 41.925 27 41.625 27.6 41.025C28.2 40.425 28.5 39.7 28.5 38.85C28.5 38 28.2 37.275 27.6 36.675C27 36.075 26.275 35.775 25.425 35.775C24.575 35.775 23.85 36.075 23.25 36.675C22.65 37.275 22.35 38 22.35 38.85C22.35 39.7 22.65 40.425 23.25 41.025C23.85 41.625 24.575 41.925 25.425 41.925ZM25.5 32.4C26.05 32.4 26.55 32.2 27 31.8C27.45 31.4 27.75 30.85 27.9 30.15C28 29.5 28.275 28.912 28.725 28.386C29.175 27.86 29.95 27.048 31.05 25.95C31.95 25.05 32.7 24.075 33.3 23.025C33.9 21.975 34.2 20.85 34.2 19.65C34.2 17.1 33.338 15.187 31.614 13.911C29.89 12.635 27.852 11.998 25.5 12C23.75 12 22.237 12.4 20.961 13.2C19.685 14 18.648 15 17.85 16.2C17.5 16.75 17.438 17.325 17.664 17.925C17.89 18.525 18.352 18.95 19.05 19.2C19.55 19.4 20.05 19.4 20.55 19.2C21.05 19 21.5 18.625 21.9 18.075C22.3 17.525 22.788 17.075 23.364 16.725C23.94 16.375 24.652 16.2 25.5 16.2C26.85 16.2 27.863 16.575 28.539 17.325C29.215 18.075 29.552 18.9 29.55 19.8C29.55 20.65 29.3 21.413 28.8 22.089C28.3 22.765 27.7 23.452 27 24.15C25.6 25.35 24.662 26.325 24.186 27.075C23.71 27.825 23.423 28.85 23.325 30.15C23.275 30.75 23.463 31.275 23.889 31.725C24.315 32.175 24.852 32.4 25.5 32.4ZM33 45V49.05C36.55 46.05 39.438 42.537 41.664 38.511C43.89 34.485 45.002 30.148 45 25.5C45 20.05 43.112 15.438 39.336 11.664C35.56 7.89 30.948 6.002 25.5 6C20.05 6 15.438 7.888 11.664 11.664C7.89 15.44 6.002 20.052 6 25.5C6 30.95 7.888 35.562 11.664 39.336C15.44 43.11 20.052 44.998 25.5 45H33Z" fill="url(#paint0_linear_365_9502)"/>
<defs>
<linearGradient id="paint0_linear_365_9502" x1="25.5" y1="0" x2="25.5" y2="60" gradientUnits="userSpaceOnUse">
<stop stop-color="#FAF3A0"/>
<stop offset="1" stop-color="#DFCD81"/>
</linearGradient>
</defs>
</svg>
