<svg width="61" height="60" viewBox="0 0 61 60" fill="none" xmlns="http://www.w3.org/2000/svg">
<path d="M40.0324 47.5H19.6824C19.4349 46.6233 19.0735 45.7828 18.6075 45L45.0324 18.575C46.5374 19.4985 48.2668 19.9914 50.0324 20C51.9041 20.0061 53.74 19.4867 55.3311 18.5011C56.9223 17.5154 58.2048 16.1029 59.0329 14.4243C59.861 12.7458 60.2014 10.8685 60.0154 9.00607C59.8293 7.14363 59.1243 5.37078 57.9805 3.88921C56.8367 2.40763 55.3001 1.27679 53.5454 0.625333C51.7907 -0.0261249 49.8884 -0.172051 48.0549 0.204154C46.2214 0.580359 44.5303 1.46359 43.1739 2.75338C41.8175 4.04318 40.8504 5.68775 40.3824 7.50002H19.6824C19.074 5.14338 17.6269 3.08955 15.6124 1.72352C13.598 0.357489 11.1545 -0.226959 8.73995 0.0797273C6.32542 0.386413 4.10562 1.56318 2.49665 3.38944C0.88768 5.21571 0 7.56609 0 10C0 12.434 0.88768 14.7843 2.49665 16.6106C4.10562 18.4369 6.32542 19.6136 8.73995 19.9203C11.1545 20.227 13.598 19.6426 15.6124 18.2765C17.6269 16.9105 19.074 14.8567 19.6824 12.5H40.3824C40.63 13.3767 40.9914 14.2172 41.4574 15L15.0325 41.425C13.5275 40.5015 11.7981 40.0086 10.0325 40C8.16075 39.9939 6.32491 40.5133 4.73378 41.499C3.14264 42.4847 1.86007 43.8971 1.03197 45.5757C0.203873 47.2542 -0.13651 49.1315 0.0495386 50.994C0.235587 52.8564 0.940599 54.6292 2.08438 56.1108C3.22816 57.5924 4.76479 58.7232 6.51947 59.3747C8.27415 60.0261 10.1764 60.1721 12.01 59.7959C13.8435 59.4197 15.5346 58.5364 16.891 57.2466C18.2473 55.9568 19.2145 54.3123 19.6824 52.5H40.0324V60H60.0324V40H40.0324V47.5ZM10.0325 15C9.04355 15 8.07685 14.7068 7.2546 14.1574C6.43236 13.608 5.7915 12.8271 5.41306 11.9134C5.03462 10.9998 4.9356 9.99447 5.12853 9.02457C5.32146 8.05466 5.79766 7.16375 6.49692 6.46449C7.19618 5.76522 8.0871 5.28902 9.057 5.0961C10.0269 4.90317 11.0322 5.00219 11.9459 5.38062C12.8595 5.75906 13.6404 6.39992 14.1898 7.22217C14.7392 8.04442 15.0325 9.01111 15.0325 10C15.0325 11.3261 14.5057 12.5979 13.568 13.5356C12.6303 14.4732 11.3585 15 10.0325 15ZM50.0324 5.00002C51.0213 5.00002 51.988 5.29327 52.8103 5.84267C53.6325 6.39208 54.2734 7.17297 54.6518 8.0866C55.0303 9.00023 55.1293 10.0056 54.9364 10.9755C54.7434 11.9454 54.2672 12.8363 53.568 13.5356C52.8687 14.2348 51.9778 14.711 51.0079 14.9039C50.038 15.0969 49.0327 14.9979 48.119 14.6194C47.2054 14.241 46.4245 13.6001 45.8751 12.7779C45.3257 11.9556 45.0324 10.9889 45.0324 10C45.0324 8.67394 45.5592 7.40217 46.4969 6.46449C47.4346 5.52681 48.7064 5.00002 50.0324 5.00002ZM10.0325 55C9.04355 55 8.07685 54.7068 7.2546 54.1574C6.43236 53.6079 5.7915 52.8271 5.41306 51.9134C5.03462 50.9998 4.9356 49.9945 5.12853 49.0246C5.32146 48.0546 5.79766 47.1637 6.49692 46.4645C7.19618 45.7652 8.0871 45.289 9.057 45.0961C10.0269 44.9032 11.0322 45.0022 11.9459 45.3806C12.8595 45.759 13.6404 46.3999 14.1898 47.2222C14.7392 48.0444 15.0325 49.0111 15.0325 50C15.0325 51.3261 14.5057 52.5979 13.568 53.5355C12.6303 54.4732 11.3585 55 10.0325 55ZM45.0324 45H55.0324V55H45.0324V45Z" fill="url(#paint0_linear_365_9505)"/>
<defs>
<linearGradient id="paint0_linear_365_9505" x1="30.0324" y1="0" x2="30.0324" y2="60" gradientUnits="userSpaceOnUse">
<stop stop-color="#FAF3A0"/>
<stop offset="1" stop-color="#DFCD81"/>
</linearGradient>
</defs>
</svg>
