<svg width="62" height="62" viewBox="0 0 62 62" fill="none" xmlns="http://www.w3.org/2000/svg">
<path d="M15.1556 44.7778L25.6611 34.2722L32.55 41.1611L44.7778 29.0194V34.4444H51.6667V17.2222H34.4444V24.1111H39.8694L32.55 31.4306L25.6611 24.5417L10.3333 39.9556L15.1556 44.7778ZM6.88889 62C4.99445 62 3.37212 61.3249 2.02189 59.9747C0.671672 58.6244 -0.00229045 57.0033 5.84795e-06 55.1111V6.88889C5.84795e-06 4.99445 0.675117 3.37212 2.02534 2.02189C3.37556 0.671672 4.99675 -0.00229045 6.88889 5.84795e-06H55.1111C57.0055 5.84795e-06 58.6279 0.675117 59.9781 2.02534C61.3283 3.37556 62.0023 4.99675 62 6.88889V55.1111C62 57.0055 61.3249 58.6279 59.9747 59.9781C58.6244 61.3283 57.0033 62.0023 55.1111 62H6.88889ZM6.88889 55.1111H55.1111V6.88889H6.88889V55.1111Z" fill="url(#paint0_linear_365_9487)"/>
<defs>
<linearGradient id="paint0_linear_365_9487" x1="31" y1="0" x2="31" y2="62" gradientUnits="userSpaceOnUse">
<stop stop-color="#FAF3A0"/>
<stop offset="1" stop-color="#DFCD81"/>
</linearGradient>
</defs>
</svg>
