<svg width="55" height="60" viewBox="0 0 55 60" fill="none" xmlns="http://www.w3.org/2000/svg">
<path d="M32.7273 32.7273H36.8182V40.4182L43.4727 44.2636L41.4273 47.8091L32.7273 42.7909V32.7273ZM43.6364 19.0909H5.45455V49.0909H18.1909C17.0182 46.6091 16.3636 43.8273 16.3636 40.9091C16.3636 35.8459 18.375 30.99 21.9552 27.4098C25.5355 23.8295 30.3913 21.8182 35.4545 21.8182C38.3727 21.8182 41.1545 22.4727 43.6364 23.6455V19.0909ZM5.45455 54.5455C4.00791 54.5455 2.62052 53.9708 1.5976 52.9479C0.574673 51.9249 0 50.5375 0 49.0909V10.9091C0 7.88182 2.42727 5.45455 5.45455 5.45455H8.18182V0H13.6364V5.45455H35.4545V0H40.9091V5.45455H43.6364C45.083 5.45455 46.4704 6.02922 47.4933 7.05214C48.5162 8.07507 49.0909 9.46246 49.0909 10.9091V27.5455C52.4727 30.9818 54.5455 35.7 54.5455 40.9091C54.5455 45.9723 52.5341 50.8282 48.9539 54.4084C45.3736 57.9886 40.5178 60 35.4545 60C30.2455 60 25.5273 57.9273 22.0909 54.5455H5.45455ZM35.4545 27.6818C31.9465 27.6818 28.582 29.0754 26.1015 31.556C23.6209 34.0366 22.2273 37.401 22.2273 40.9091C22.2273 48.2182 28.1455 54.1364 35.4545 54.1364C37.1916 54.1364 38.9116 53.7942 40.5164 53.1295C42.1212 52.4648 43.5794 51.4905 44.8076 50.2622C46.0359 49.0339 47.0102 47.5758 47.675 45.9709C48.3397 44.3661 48.6818 42.6461 48.6818 40.9091C48.6818 33.6 42.7636 27.6818 35.4545 27.6818Z" fill="url(#paint0_linear_365_9431)"/>
<defs>
<linearGradient id="paint0_linear_365_9431" x1="27.2727" y1="0" x2="27.2727" y2="60" gradientUnits="userSpaceOnUse">
<stop stop-color="#FAF3A0"/>
<stop offset="1" stop-color="#DFCD81"/>
</linearGradient>
</defs>
</svg>
