<svg width="52" height="51" viewBox="0 0 52 51" fill="none" xmlns="http://www.w3.org/2000/svg">
<path d="M9.94153 19.9889L14.8165 22.0514C15.3999 20.8847 16.004 19.7597 16.629 18.6764C17.254 17.5931 17.9415 16.5097 18.6915 15.4264L15.1915 14.7389L9.94153 19.9889ZM18.8165 25.1764L25.9415 32.2389C27.6915 31.5722 29.5665 30.5514 31.5665 29.1764C33.5665 27.8014 35.4415 26.2389 37.1915 24.4889C40.1082 21.5722 42.3899 18.3331 44.0365 14.7714C45.6832 11.2097 46.4015 7.92808 46.1915 4.92641C43.1915 4.71808 39.8999 5.43724 36.3165 7.08391C32.7332 8.73058 29.4832 11.0114 26.5665 13.9264C24.8165 15.6764 23.254 17.5514 21.879 19.5514C20.504 21.5514 19.4832 23.4264 18.8165 25.1764ZM29.9415 21.1139C28.9832 20.1556 28.504 18.9789 28.504 17.5839C28.504 16.1889 28.9832 15.0114 29.9415 14.0514C30.8999 13.0931 32.0874 12.6139 33.504 12.6139C34.9207 12.6139 36.1082 13.0931 37.0665 14.0514C38.0249 15.0097 38.504 16.1872 38.504 17.5839C38.504 18.9806 38.0249 20.1572 37.0665 21.1139C36.1082 22.0722 34.9207 22.5514 33.504 22.5514C32.0874 22.5514 30.8999 22.0722 29.9415 21.1139ZM31.129 41.1764L36.379 35.9264L35.6915 32.4264C34.6082 33.1764 33.5249 33.8531 32.4415 34.4564C31.3582 35.0597 30.2332 35.6539 29.0665 36.2389L31.129 41.1764ZM50.6915 0.363911C51.4832 5.40558 50.994 10.3122 49.224 15.0839C47.454 19.8556 44.4015 24.4064 40.0665 28.7364L41.3165 34.9264C41.4832 35.7597 41.4415 36.5722 41.1915 37.3639C40.9415 38.1556 40.5249 38.8431 39.9415 39.4264L29.4415 49.9264L24.1915 37.6139L13.504 26.9264L1.19153 21.6764L11.629 11.1764C12.2124 10.5931 12.9107 10.1764 13.724 9.92641C14.5374 9.67641 15.3599 9.63474 16.1915 9.80141L22.379 11.0514C26.7124 6.71808 31.254 3.65558 36.004 1.86391C40.754 0.072245 45.6499 -0.427755 50.6915 0.363911ZM5.62903 34.8639C7.08736 33.4056 8.86903 32.6664 10.974 32.6464C13.079 32.6264 14.8599 33.3447 16.3165 34.8014C17.7749 36.2597 18.494 38.0414 18.474 40.1464C18.454 42.2514 17.714 44.0322 16.254 45.4889C15.2124 46.5306 13.4732 47.4264 11.0365 48.1764C8.59986 48.9264 5.23486 49.5931 0.941528 50.1764C1.52486 45.8847 2.19153 42.5197 2.94153 40.0814C3.69153 37.6431 4.58736 35.9039 5.62903 34.8639ZM9.19153 38.3639C8.77486 38.7806 8.35819 39.5414 7.94153 40.6464C7.52486 41.7514 7.2332 42.8656 7.06653 43.9889C8.19153 43.8222 9.30653 43.5406 10.4115 43.1439C11.5165 42.7472 12.2765 42.3414 12.6915 41.9264C13.1915 41.4264 13.4624 40.8222 13.504 40.1139C13.5457 39.4056 13.3165 38.8014 12.8165 38.3014C12.3165 37.8014 11.7124 37.5614 11.004 37.5814C10.2957 37.6014 9.69153 37.8622 9.19153 38.3639Z" fill="#C7B070"/>
</svg>
