<svg width="60" height="60" viewBox="0 0 60 60" fill="none" xmlns="http://www.w3.org/2000/svg">
<path d="M31.875 37.5C33.3668 37.5 34.7976 38.0926 35.8525 39.1475C36.9074 40.2024 37.5 41.6332 37.5 43.125V45C37.5 52.3913 30.525 60 18.75 60C6.975 60 0 52.3913 0 45V43.125C0 41.6332 0.592632 40.2024 1.64752 39.1475C2.70242 38.0926 4.13316 37.5 5.625 37.5H31.875ZM31.875 41.25H5.625C5.12772 41.25 4.65081 41.4475 4.29918 41.7992C3.94754 42.1508 3.75 42.6277 3.75 43.125V45C3.75 50.3925 9.12 56.25 18.75 56.25C28.38 56.25 33.75 50.3925 33.75 45V43.125C33.75 42.6277 33.5525 42.1508 33.2008 41.7992C32.8492 41.4475 32.3723 41.25 31.875 41.25ZM18.75 13.125C21.485 13.125 24.1081 14.2115 26.042 16.1455C27.976 18.0794 29.0625 20.7025 29.0625 23.4375C29.0625 26.1725 27.976 28.7956 26.042 30.7295C24.1081 32.6635 21.485 33.75 18.75 33.75C16.015 33.75 13.3919 32.6635 11.458 30.7295C9.52399 28.7956 8.4375 26.1725 8.4375 23.4375C8.4375 20.7025 9.52399 18.0794 11.458 16.1455C13.3919 14.2115 16.015 13.125 18.75 13.125ZM52.5 0C54.3915 0.000347159 56.213 0.715393 57.5997 2.00189C58.9863 3.28838 59.8356 5.05131 59.9775 6.9375L60 7.5V15C60.0006 16.8922 59.286 18.7146 57.9994 20.1021C56.7128 21.4895 54.9493 22.3393 53.0625 22.4812L52.5 22.5H46.8713L42.3787 28.5C40.3913 31.1475 36.3638 30.075 35.715 27.09L35.6512 26.6737L35.625 26.25V22.2563L35.3325 22.1812C33.9846 21.7729 32.7786 20.9938 31.8523 19.9328C30.926 18.8719 30.3166 17.5719 30.0937 16.1812L30.0188 15.5588L30 15V7.5C29.9994 5.60784 30.714 3.78538 32.0006 2.39794C33.2872 1.01051 35.0507 0.160662 36.9375 0.0187504L37.5 0H52.5ZM18.75 16.875C17.8882 16.875 17.0348 17.0447 16.2386 17.3745C15.4424 17.7043 14.719 18.1877 14.1096 18.7971C13.5002 19.4065 13.0168 20.1299 12.687 20.9261C12.3572 21.7223 12.1875 22.5757 12.1875 23.4375C12.1875 24.2993 12.3572 25.1527 12.687 25.9489C13.0168 26.7451 13.5002 27.4685 14.1096 28.0779C14.719 28.6873 15.4424 29.1707 16.2386 29.5005C17.0348 29.8303 17.8882 30 18.75 30C20.4905 30 22.1597 29.3086 23.3904 28.0779C24.6211 26.8472 25.3125 25.178 25.3125 23.4375C25.3125 21.697 24.6211 20.0278 23.3904 18.7971C22.1597 17.5664 20.4905 16.875 18.75 16.875ZM52.5 3.75H37.5C36.5815 3.75012 35.695 4.08734 35.0086 4.69768C34.3222 5.30803 33.8837 6.14906 33.7762 7.06125L33.75 7.5V15C33.7501 15.9185 34.0873 16.805 34.6977 17.4914C35.308 18.1778 36.1491 18.6163 37.0613 18.7238L37.5 18.75H39.375V26.25L45 18.75H52.5C53.4185 18.7499 54.305 18.4127 54.9914 17.8023C55.6778 17.192 56.1163 16.3509 56.2238 15.4388L56.25 15V7.5C56.2499 6.5815 55.9127 5.69499 55.3023 5.00861C54.692 4.32222 53.8509 3.88371 52.9388 3.77625L52.5 3.75Z" fill="#C7B070"/>
</svg>
