<svg width="60" height="61" viewBox="0 0 60 61" fill="none" xmlns="http://www.w3.org/2000/svg">
<path d="M41.6612 24.7731L38.6098 27.8245L32.3561 21.6916L35.4074 18.6101C36.0117 17.9756 37.0388 17.9454 37.7639 18.6101L41.6612 22.3864C42.2956 23.0209 42.3258 24.0481 41.6612 24.7731ZM17.9756 35.9815L30.5737 23.323L36.8274 29.6069L24.2595 42.2956H17.9756V35.9815ZM33.0812 0V6.04223C46.3439 7.67363 55.7395 19.7279 54.1081 32.9906C53.4412 38.3349 51.0115 43.3042 47.2032 47.1125C43.3949 50.9208 38.4255 53.3506 33.0812 54.0175V60.0597C49.6973 58.2471 61.6307 43.3228 59.818 26.7369C58.2471 12.6585 47.1596 1.51056 33.0812 0ZM27.039 0C21.1176 0.5438 15.5285 2.87006 10.9364 6.64645L15.2566 11.299C18.6403 8.57996 22.7188 6.82772 27.039 6.22349V0.181267M6.67666 11.0875C2.88722 15.6643 0.561019 21.2746 0 27.19H6.04223C6.61624 22.9 8.30806 18.8215 10.9969 15.4077L6.67666 11.0875ZM0.0302111 33.2322C0.634434 39.1536 2.96069 44.7427 6.70687 49.3348L10.9969 45.0146C8.329 41.5995 6.62818 37.5301 6.07244 33.2322H0.0302111ZM15.1358 49.4556L10.9364 53.5945C15.5128 57.4093 21.1154 59.7849 27.039 60.4223V54.38C22.7411 53.8243 18.6717 52.1235 15.2566 49.4556H15.1358Z" fill="#C7B070"/>
</svg>
