<svg width="35" height="35" viewBox="0 0 35 35" fill="none" xmlns="http://www.w3.org/2000/svg">
<path d="M26.7969 0H8.20312C3.67266 0 0 3.67266 0 8.20312V26.7969C0 31.3273 3.67266 35 8.20312 35H26.7969C31.3273 35 35 31.3273 35 26.7969V8.20312C35 3.67266 31.3273 0 26.7969 0Z" fill="#5865F2"/>
<mask id="mask0_610_3111" style="mask-type:luminance" maskUnits="userSpaceOnUse" x="3" y="6" width="29" height="23">
<path d="M3.82812 6.97266H31.1719V28.1545H3.82812V6.97266Z" fill="white"/>
</mask>
<g mask="url(#mask0_610_3111)">
<path d="M26.9757 8.85898C25.203 8.04521 23.3321 7.46491 21.4101 7.13264C21.3926 7.1294 21.3745 7.13176 21.3585 7.13937C21.3424 7.14698 21.3292 7.15945 21.3206 7.17502C21.0803 7.6024 20.814 8.16021 20.6276 8.59853C18.5258 8.28381 16.435 8.28381 14.3764 8.59853C14.1899 8.15037 13.914 7.6024 13.6726 7.17502C13.6637 7.15977 13.6503 7.14757 13.6344 7.14001C13.6184 7.13245 13.6005 7.12988 13.583 7.13264C11.6608 7.46424 9.78986 8.04456 8.01736 8.85898C8.00219 8.86542 7.98939 8.87641 7.98072 8.89043C4.43588 14.1864 3.4649 19.3521 3.94123 24.4539C3.94256 24.4665 3.94639 24.4786 3.95249 24.4896C3.9586 24.5005 3.96686 24.5102 3.97678 24.5179C6.31549 26.2355 8.58105 27.2783 10.8045 27.9694C10.8218 27.9746 10.8403 27.9743 10.8574 27.9687C10.8746 27.9631 10.8896 27.9523 10.9005 27.9379C11.4264 27.2196 11.8953 26.4623 12.2973 25.666C12.3029 25.655 12.306 25.6431 12.3066 25.6309C12.3072 25.6187 12.3052 25.6064 12.3007 25.5951C12.2962 25.5837 12.2894 25.5734 12.2806 25.5648C12.2719 25.5563 12.2614 25.5497 12.2499 25.5455C11.5062 25.2633 10.7981 24.9195 10.117 24.5289C10.1045 24.5216 10.0941 24.5113 10.0866 24.499C10.0791 24.4867 10.0747 24.4728 10.0739 24.4584C10.073 24.4441 10.0757 24.4297 10.0817 24.4166C10.0877 24.4035 10.0969 24.3921 10.1083 24.3834C10.252 24.276 10.3932 24.1653 10.5319 24.0514C10.544 24.0414 10.5587 24.035 10.5743 24.0328C10.5899 24.0307 10.6058 24.033 10.6202 24.0394C15.0953 26.0825 19.9399 26.0825 24.3621 24.0394C24.3765 24.0326 24.3926 24.03 24.4084 24.0319C24.4243 24.0338 24.4393 24.0402 24.4516 24.0504C24.5904 24.1649 24.732 24.2759 24.8763 24.3834C24.8878 24.392 24.897 24.4034 24.9031 24.4164C24.9092 24.4294 24.912 24.4438 24.9113 24.4581C24.9105 24.4725 24.9063 24.4865 24.8988 24.4988C24.8914 24.5111 24.8811 24.5215 24.8688 24.5289C24.1873 24.9268 23.4734 25.2665 22.7347 25.5444C22.7233 25.5488 22.7128 25.5556 22.7042 25.5642C22.6955 25.5729 22.6887 25.5833 22.6844 25.5948C22.68 25.6063 22.6781 25.6186 22.6788 25.6308C22.6795 25.6431 22.6827 25.655 22.6884 25.666C23.0974 26.456 23.5639 27.215 24.084 27.9369C24.0946 27.9516 24.1095 27.9627 24.1268 27.9686C24.144 27.9744 24.1626 27.9747 24.18 27.9694C26.4142 27.2783 28.6798 26.2355 31.0187 24.5179C31.0287 24.5105 31.037 24.5011 31.0431 24.4903C31.0493 24.4794 31.053 24.4674 31.0542 24.455C31.6243 18.5569 30.0992 13.4333 27.0113 8.89152C27.0037 8.87677 26.9911 8.86522 26.9757 8.85898ZM12.9656 21.3476C11.6183 21.3476 10.5081 20.1107 10.5081 18.5916C10.5081 17.0725 11.5968 15.8356 12.9656 15.8356C14.3451 15.8356 15.4445 17.0834 15.4229 18.5916C15.4229 20.1107 14.3345 21.3476 12.9656 21.3476ZM22.0514 21.3476C20.704 21.3476 19.594 20.1107 19.594 18.5916C19.594 17.0725 20.6826 15.8356 22.0514 15.8356C23.4309 15.8356 24.5303 17.0834 24.5088 18.5916C24.5088 20.1107 23.4309 21.3476 22.0514 21.3476Z" fill="white"/>
</g>
</svg>
