<svg width="35" height="35" viewBox="0 0 35 35" fill="none" xmlns="http://www.w3.org/2000/svg">
<path d="M29.8214 29.822H24.6355V21.7005C24.6355 19.7639 24.6009 17.2708 21.9383 17.2708C19.2373 17.2708 18.824 19.3809 18.824 21.5596V29.8215H13.6383V13.1205H18.6166V15.4028H18.6863C19.1846 14.5509 19.9045 13.8501 20.7695 13.375C21.6345 12.9 22.6122 12.6684 23.5984 12.705C28.8545 12.705 29.8236 16.1623 29.8236 20.6601L29.8214 29.822ZM7.78671 10.8377C6.12462 10.8379 4.77698 9.49071 4.77671 7.82862C4.77644 6.16653 6.12353 4.81889 7.78561 4.81862C9.4477 4.81821 10.7953 6.16543 10.7956 7.82752C10.7958 8.62569 10.4788 9.39123 9.91456 9.95574C9.35029 10.5202 8.58488 10.8375 7.78671 10.8377ZM10.3797 29.8222H5.18837V13.1205H10.3796V29.822L10.3797 29.8222ZM32.4067 0.00242526H2.58251C1.17294 -0.0134341 0.0169824 1.11573 -0.000244141 2.5253V32.474C0.0164355 33.8842 1.17226 35.0145 2.58237 34.9997H32.4067C33.8199 35.0172 34.9802 33.8869 34.9998 32.474V2.52297C34.9797 1.11067 33.8192 -0.018356 32.4067 0.00010104" fill="#0A66C2"/>
</svg>
