<svg width="35" height="35" viewBox="0 0 35 35" fill="none" xmlns="http://www.w3.org/2000/svg">
<path d="M17.5 0C12.8598 0 8.40547 1.84488 5.12695 5.12559C1.84505 8.40759 0.000909097 12.8586 0 17.5C0 22.1394 1.8457 26.5937 5.12695 29.8744C8.40547 33.1551 12.8598 35 17.5 35C22.1402 35 26.5945 33.1551 29.873 29.8744C33.1543 26.5937 35 22.1394 35 17.5C35 12.8606 33.1543 8.40629 29.873 5.12559C26.5945 1.84488 22.1402 0 17.5 0Z" fill="url(#paint0_linear_610_3100)"/>
<path d="M7.92148 17.3152C13.0238 15.0927 16.4254 13.6273 18.1262 12.9194C22.9879 10.8979 23.9969 10.5468 24.6559 10.5349C24.8008 10.5326 25.1234 10.5684 25.334 10.7386C25.509 10.8822 25.5582 11.0763 25.5828 11.2126C25.6047 11.3488 25.6348 11.6591 25.6102 11.9014C25.3477 14.6686 24.2074 21.3837 23.6277 24.4831C23.3844 25.7945 22.9004 26.2342 22.4328 26.2771C21.4156 26.3706 20.6445 25.6055 19.6602 24.9605C18.1207 23.9507 17.2512 23.3223 15.7555 22.3371C14.0273 21.1985 15.1484 20.5726 16.1328 19.55C16.3898 19.2823 20.8687 15.2094 20.9535 14.84C20.9644 14.7938 20.9754 14.6216 20.8715 14.5308C20.7703 14.4397 20.6199 14.4709 20.5105 14.4955C20.3547 14.5305 17.8965 16.1569 13.1277 19.3744C12.4305 19.8541 11.7988 20.0878 11.2301 20.0755C10.6066 20.0621 9.40351 19.7223 8.50937 19.4319C7.41562 19.0756 6.54335 18.8872 6.61992 18.2821C6.6582 17.9671 7.09296 17.6447 7.92148 17.3152Z" fill="white"/>
<defs>
<linearGradient id="paint0_linear_610_3100" x1="1750" y1="0" x2="1750" y2="3500" gradientUnits="userSpaceOnUse">
<stop stop-color="#2AABEE"/>
<stop offset="1" stop-color="#229ED9"/>
</linearGradient>
</defs>
</svg>
