<svg width="24" height="26" viewBox="0 0 24 26" fill="none" xmlns="http://www.w3.org/2000/svg">
<path d="M6.99549 12.875V16.813C4.9782 16.5563 3.13434 15.5411 1.83868 13.9738C0.54301 12.4064 -0.107233 10.4045 0.0201084 8.37497C0.147449 6.34541 1.04282 4.44049 2.52423 3.04738C4.00565 1.65427 5.96194 0.877521 7.99549 0.875C9.98742 0.874942 11.9077 1.618 13.3808 2.95884C14.8539 4.29968 15.7737 6.14184 15.9605 8.125H11.7455C10.4857 8.125 9.27753 8.62545 8.38673 9.51624C7.49593 10.407 6.99549 11.6152 6.99549 12.875ZM11.7455 9.125C10.7509 9.125 9.7971 9.52009 9.09384 10.2233C8.39058 10.9266 7.99549 11.8804 7.99549 12.875V21.375C7.99549 22.3696 8.39058 23.3234 9.09384 24.0267C9.7971 24.7299 10.7509 25.125 11.7455 25.125H20.2455C21.24 25.125 22.1939 24.7299 22.8971 24.0267C23.6004 23.3234 23.9955 22.3696 23.9955 21.375V12.875C23.9955 11.8804 23.6004 10.9266 22.8971 10.2233C22.1939 9.52009 21.24 9.125 20.2455 9.125H11.7455Z" fill="#FAF8F2"/>
</svg>
