<svg width="26" height="26" viewBox="0 0 26 26" fill="none" xmlns="http://www.w3.org/2000/svg">
<path d="M11.4372 25.5C10.9945 25.5 10.6232 25.35 10.3232 25.05C10.0232 24.75 9.87368 24.3792 9.87472 23.9375V14.5625L0.812225 3C0.4216 2.47917 0.362746 1.93229 0.635662 1.35938C0.908579 0.786459 1.3841 0.5 2.06222 0.5H23.9372C24.6143 0.5 25.0898 0.786459 25.3638 1.35938C25.6377 1.93229 25.5789 2.47917 25.1872 3L16.1247 14.5625V23.9375C16.1247 24.3802 15.9747 24.7516 15.6747 25.0516C15.3747 25.3516 15.0039 25.501 14.5622 25.5H11.4372Z" fill="#747069"/>
</svg>
