<svg width="30" height="26" viewBox="0 0 30 26" fill="none" xmlns="http://www.w3.org/2000/svg">
<path d="M17.0834 0.5C13.7682 0.5 10.5888 1.81696 8.24458 4.16116C5.90037 6.50537 4.58341 9.68479 4.58341 13H0.416748L5.81952 18.4028L5.91675 18.5972L11.5279 13H7.36119C7.36119 7.625 11.7084 3.27778 17.0834 3.27778C22.4584 3.27778 26.8056 7.625 26.8056 13C26.8056 18.375 22.4584 22.7222 17.0834 22.7222C14.4029 22.7222 11.9723 21.625 10.2223 19.8611L8.25008 21.8333C9.4076 22.9972 10.7841 23.9205 12.3002 24.5498C13.8162 25.1791 15.4419 25.502 17.0834 25.5C20.3986 25.5 23.578 24.183 25.9222 21.8388C28.2664 19.4946 29.5834 16.3152 29.5834 13C29.5834 9.68479 28.2664 6.50537 25.9222 4.16116C23.578 1.81696 20.3986 0.5 17.0834 0.5ZM15.6945 7.44444V14.3889L21.639 17.9167L22.639 16.2361L17.7779 13.3472V7.44444H15.6945Z" fill="#FAF8F2"/>
</svg>
