<svg width="30" height="26" viewBox="0 0 30 26" fill="none" xmlns="http://www.w3.org/2000/svg">
<path d="M26.9318 5.04545H4.2045C3.90312 5.04545 3.61408 4.92573 3.40097 4.71262C3.18786 4.49951 3.06814 4.21047 3.06814 3.90909C3.06814 3.60771 3.18786 3.31867 3.40097 3.10556C3.61408 2.89245 3.90312 2.77273 4.2045 2.77273H23.5227C23.8241 2.77273 24.1131 2.653 24.3262 2.43989C24.5393 2.22678 24.659 1.93775 24.659 1.63636C24.659 1.33498 24.5393 1.04594 24.3262 0.832833C24.1131 0.619724 23.8241 0.5 23.5227 0.5H4.2045C3.30035 0.5 2.43324 0.859171 1.79391 1.4985C1.15458 2.13783 0.79541 3.00494 0.79541 3.90909V22.0909C0.79541 22.9951 1.15458 23.8622 1.79391 24.5015C2.43324 25.1408 3.30035 25.5 4.2045 25.5H26.9318C27.5345 25.5 28.1126 25.2606 28.5388 24.8343C28.9651 24.4081 29.2045 23.83 29.2045 23.2273V7.31818C29.2045 6.71542 28.9651 6.13734 28.5388 5.71112C28.1126 5.2849 27.5345 5.04545 26.9318 5.04545ZM21.8181 16.4091C21.481 16.4091 21.1515 16.3091 20.8711 16.1218C20.5908 15.9345 20.3724 15.6683 20.2433 15.3568C20.1143 15.0454 20.0806 14.7027 20.1463 14.372C20.2121 14.0414 20.3745 13.7376 20.6128 13.4993C20.8512 13.2609 21.1549 13.0985 21.4856 13.0328C21.8162 12.967 22.159 13.0007 22.4704 13.1298C22.7819 13.2588 23.0481 13.4772 23.2354 13.7576C23.4227 14.0379 23.5227 14.3674 23.5227 14.7045C23.5227 15.1566 23.3431 15.5902 23.0234 15.9098C22.7038 16.2295 22.2702 16.4091 21.8181 16.4091Z" fill="#747069"/>
</svg>
