<svg width="80" height="81" viewBox="0 0 80 81" fill="none" xmlns="http://www.w3.org/2000/svg">
<g clip-path="url(#clip0_642_16837)">
<path d="M40 27.1667L30 33V44.6667L40 50.5L50 44.6667V33L40 27.1667ZM45.0567 33.9667L39.9567 36.94L34.9 33.99L40 31.0167L45.0567 33.9667ZM33.3 36.9067L38.2467 39.7933V45.6267L33.3 42.7433V36.9067ZM41.5467 45.75V39.86L46.7 36.8533V42.7433L41.5467 45.75ZM10 0.5L0 6.33333V18L10 23.8333L20 18V6.33333L10 0.5ZM15.0567 7.3L9.95667 10.2733L4.9 7.32333L10 4.35L15.0567 7.3ZM3.3 10.2367L8.24667 13.1233V18.9567L3.3 16.08V10.2367ZM11.5467 19.08V13.1933L16.7 10.1867V16.0767L11.5467 19.08ZM10 57.1667L0 63V74.6667L10 80.5L20 74.6667V63L10 57.1667ZM15.0567 63.9667L9.95667 66.94L4.9 63.99L10 61.0167L15.0567 63.9667ZM3.3 66.9067L8.24667 69.7933V75.6267L3.3 72.7467V66.9067ZM11.5467 75.75V69.86L16.7 66.8533V72.7433L11.5467 75.75ZM70 0.5L60 6.33333V18L70 23.8333L80 18V6.33333L70 0.5ZM75.0567 7.3L69.9567 10.2733L64.9 7.32333L70 4.35L75.0567 7.3ZM63.3 10.24L68.2467 13.1267V18.96L63.3 16.0767V10.24ZM71.5467 19.0833V13.1933L76.7 10.1867V16.0767L71.5467 19.0833ZM70 57.1667L60 63V74.6667L70 80.5L80 74.6667V63L70 57.1667ZM75.0567 63.9667L69.9567 66.94L64.9 63.99L70 61.0167L75.0567 63.9667ZM63.3 66.9067L68.2467 69.7933V75.6267L63.3 72.7433V66.9067ZM71.5467 75.75V69.86L76.7 66.8533V72.7433L71.5467 75.75ZM30 10.5H50V13.8333H30V10.5ZM30 67.1667H50V70.5H30V67.1667ZM11.6667 30.5V50.5H8.33333V30.5H11.6667ZM24.31 29.9267L17.24 22.8567L19.5967 20.5L26.6667 27.5667L24.31 29.9267ZM53.3333 28.1433L60.4033 21.0733L62.76 23.43L55.69 30.5L53.3333 28.1433ZM27.0933 50.0967L20.0233 57.1667L17.6667 54.81L24.7367 47.74L27.0933 50.0967ZM56.2633 47.5967L63.3333 54.6667L60.9767 57.0233L53.9067 49.9533L56.2633 47.5967ZM71.6667 30.5V50.5H68.3333V30.5H71.6667Z" fill="#C7B070"/>
</g>
<defs>
<clipPath id="clip0_642_16837">
<rect width="80" height="80" fill="white" transform="translate(0 0.5)"/>
</clipPath>
</defs>
</svg>
