<svg width="100" height="101" viewBox="0 0 100 101" fill="none" xmlns="http://www.w3.org/2000/svg">
<g clip-path="url(#clip0_642_16832)">
<path d="M30.4667 38.0001H23.7L14.5833 63.0001H21.2792L23.1375 57.8917H31.0292L32.8875 63.0001H39.5833L30.4667 38.0001ZM24.6583 53.7251L27.0833 47.0834L29.5083 53.7292L24.6583 53.7251ZM61.4333 38.0001H46.85V63.0001H53.1V54.6667H61.4333C62.2583 54.682 63.0779 54.5308 63.843 54.2221C64.6082 53.9134 65.3033 53.4536 65.8868 52.8702C66.4702 52.2867 66.93 51.5916 67.2387 50.8265C67.5474 50.0613 67.6986 49.2417 67.6833 48.4167V44.2501C67.6986 43.4251 67.5474 42.6055 67.2387 41.8404C66.93 41.0752 66.4702 40.3801 65.8868 39.7967C65.3033 39.2132 64.6082 38.7534 63.843 38.4447C63.0779 38.136 62.2583 37.9848 61.4333 38.0001ZM61.4333 48.4167H53.1V44.2501H61.4333V48.4167ZM75 38.0001H81.25V63.0001H75V38.0001Z" fill="#C7B070"/>
<path d="M91.6667 25.5001V75.5001H8.33333V25.5001H91.6667ZM91.6667 17.1667H8.33333C6.1232 17.1667 4.00358 18.0447 2.44078 19.6075C0.877974 21.1703 0 23.2899 0 25.5001L0 75.5001C0 77.7102 0.877974 79.8298 2.44078 81.3926C4.00358 82.9554 6.1232 83.8334 8.33333 83.8334H91.6667C93.8768 83.8334 95.9964 82.9554 97.5592 81.3926C99.122 79.8298 100 77.7102 100 75.5001V25.5001C100 23.2899 99.122 21.1703 97.5592 19.6075C95.9964 18.0447 93.8768 17.1667 91.6667 17.1667Z" fill="#C7B070"/>
</g>
<defs>
<clipPath id="clip0_642_16832">
<rect width="100" height="100" fill="white" transform="translate(0 0.5)"/>
</clipPath>
</defs>
</svg>
