<svg width="60" height="61" viewBox="0 0 60 61" fill="none" xmlns="http://www.w3.org/2000/svg">
<g clip-path="url(#clip0_853_10109)">
<path fill-rule="evenodd" clip-rule="evenodd" d="M12.4968 0.5H47.5008C54.4056 0.5 60 6.5192 60 13.9448V47.0552C60 54.4808 54.4056 60.5 47.5032 60.5H12.4968C5.5944 60.5 0 54.4808 0 47.0552V13.9448C0 6.5192 5.5944 0.5 12.4968 0.5Z" fill="#0052FF"/>
<path fill-rule="evenodd" clip-rule="evenodd" d="M30 9.19043C41.7696 9.19043 51.3096 18.7304 51.3096 30.5C51.3096 42.2696 41.7696 51.8096 30 51.8096C18.2304 51.8096 8.69043 42.2696 8.69043 30.5C8.69043 18.7304 18.2304 9.19043 30 9.19043Z" fill="white"/>
<path fill-rule="evenodd" clip-rule="evenodd" d="M24.7512 23.6888H35.2464C36.1104 23.6888 36.8088 24.4424 36.8088 25.3688V35.6288C36.8088 36.5576 36.108 37.3088 35.2464 37.3088H24.7512C23.8872 37.3088 23.1888 36.5552 23.1888 35.6288V25.3688C23.1888 24.4424 23.8896 23.6888 24.7512 23.6888Z" fill="#0052FF"/>
</g>
<defs>
<clipPath id="clip0_853_10109">
<rect width="60" height="60" fill="white" transform="translate(0 0.5)"/>
</clipPath>
</defs>
</svg>
