<svg width="60" height="63" viewBox="0 0 60 63" fill="none" xmlns="http://www.w3.org/2000/svg">
<g clip-path="url(#clip0_853_10134)">
<path d="M59.9714 32.0746C59.9714 29.5588 59.7673 27.7229 59.3255 25.8191H30.5977V37.1741H47.4602C47.1204 39.996 45.2845 44.2457 41.2048 47.1013L41.1476 47.4814L50.2308 54.5181L50.8601 54.5809C56.6395 49.2432 59.9714 41.3898 59.9714 32.0746Z" fill="#4285F4"/>
<path d="M30.5977 61.9921C38.8589 61.9921 45.7943 59.2722 50.8601 54.5807L41.2048 47.1011C38.621 48.903 35.1532 50.1609 30.5977 50.1609C22.5063 50.1609 15.6389 44.8235 13.1909 37.446L12.832 37.4765L3.38719 44.786L3.26367 45.1293C8.29523 55.1245 18.6305 61.9921 30.5977 61.9921Z" fill="#34A853"/>
<path d="M13.1909 37.4462C12.5449 35.5424 12.1711 33.5024 12.1711 31.3946C12.1711 29.2867 12.5449 27.2469 13.1569 25.3431L13.1398 24.9376L3.57656 17.5107L3.26367 17.6596C1.18992 21.8073 0 26.465 0 31.3946C0 36.3243 1.18992 40.9818 3.26367 45.1295L13.1909 37.4462Z" fill="#FBBC05"/>
<path d="M30.5977 12.6279C36.3431 12.6279 40.2188 15.1097 42.4287 17.1837L51.064 8.75227C45.7605 3.82266 38.8589 0.796875 30.5977 0.796875C18.6305 0.796875 8.29523 7.6643 3.26367 17.6595L13.1569 25.343C15.6389 17.9655 22.5063 12.6279 30.5977 12.6279Z" fill="#EB4335"/>
</g>
<defs>
<clipPath id="clip0_853_10134">
<rect width="60" height="61.4062" fill="white" transform="translate(0 0.796875)"/>
</clipPath>
</defs>
</svg>
