<svg width="50" height="49" viewBox="0 0 50 49" fill="none" xmlns="http://www.w3.org/2000/svg">
<path d="M48.841 0.0814209L27.3865 16.6208L31.3761 6.87366L48.841 0.0814209Z" fill="#E17726"/>
<path d="M1.2092 0.100952L18.6274 6.87488L22.4156 16.7498L1.2092 0.100952ZM40.2071 35.256L49.6897 35.444L46.3756 47.1735L34.8047 43.8544L40.2071 35.256ZM9.7928 35.256L15.175 43.8544L3.62366 47.1737L0.329712 35.444L9.7928 35.256Z" fill="#E27625"/>
<path d="M21.9005 14.2345L22.288 27.2746L10.6921 26.725L13.9906 21.5405L14.0324 21.4907L21.9005 14.2345ZM27.9792 14.089L35.9675 21.4911L36.0089 21.5407L39.3074 26.7252L27.714 27.2746L27.9792 14.089ZM15.5146 35.2939L21.8462 40.4338L14.4912 44.1334L15.5146 35.2939ZM34.4865 35.2931L35.4886 44.1336L28.1541 40.4334L34.4865 35.2931Z" fill="#E27625"/>
<path d="M28.3161 39.9492L35.7588 43.704L28.8356 47.132L28.9075 44.8663L28.3161 39.9492ZM21.6819 39.9508L21.1137 44.8293L21.1604 47.1293L14.2209 43.704L21.6819 39.9508Z" fill="#D5BFB2"/>
<path d="M19.5326 28.9766L21.4775 33.2352L14.8558 31.2141L19.5326 28.9766ZM30.4672 28.977L35.166 31.2141L28.5226 33.2346L30.4672 28.977Z" fill="#233447"/>
<path d="M16.0207 35.2503L14.9504 44.4154L9.2135 35.4507L16.0207 35.2503ZM33.9797 35.2505L40.7871 35.4507L35.0287 44.4158L33.9797 35.2505ZM39.475 26.2067L34.5209 31.467L30.7012 29.6485L28.8725 33.6539L27.6737 26.7661L39.475 26.2067ZM10.5225 26.2067L22.3262 26.7661L21.1272 33.6539L19.2981 29.6491L15.4987 31.4672L10.5225 26.2067Z" fill="#CC6228"/>
<path d="M10.1887 25.1272L15.7938 31.0529L15.9879 36.903L10.1887 25.1272ZM39.817 25.1166L34.0073 36.9134L34.226 31.0529L39.817 25.1166ZM22.0522 25.4881L22.2778 26.9675L22.8352 30.6529L22.4768 41.9719L20.7825 32.879L20.7819 32.785L22.0522 25.4881ZM27.945 25.4676L29.2186 32.785L29.218 32.879L27.5194 41.9947L27.4522 39.7146L27.1872 30.5857L27.945 25.4676Z" fill="#E27525"/>
<path d="M34.7242 30.8175L34.5345 35.9002L28.6217 40.6999L27.4263 39.82L28.7662 32.6298L34.7242 30.8175ZM15.2963 30.8175L21.2336 32.6298L22.5734 39.82L21.3781 40.6999L15.465 35.8998L15.2963 30.8175Z" fill="#F5841F"/>
<path d="M13.0895 42.5815L20.6543 46.316L20.6223 44.7212L21.2553 44.1423H28.7424L29.3983 44.7192L29.3498 46.3127L36.8668 42.5909L33.209 45.7401L28.7862 48.9049H21.1946L16.7746 45.7271L13.0895 42.5815Z" fill="#C0AC9D"/>
<path d="M27.7742 39.4521L28.8438 40.2394L29.4705 45.4496L28.5635 44.6517H21.4393L20.5494 45.4656L21.1557 40.2399L22.2256 39.4521H27.7742Z" fill="#161616"/>
<path d="M47.4246 0.539307L50 8.5887L48.3916 16.7276L49.5369 17.648L47.9871 18.8799L49.152 19.8172L47.6096 21.2805L48.5564 21.9949L46.0436 25.0525L35.7369 21.9259L35.6477 21.8761L28.2205 15.3486L47.4246 0.539307ZM2.57539 0.539307L21.7797 15.3486L14.3523 21.8761L14.2631 21.9259L3.95645 25.0525L1.44355 21.9949L2.38965 21.2811L0.848242 19.8172L2.01074 18.8809L0.437695 17.6456L1.62617 16.7246L0 8.5891L2.57539 0.539307Z" fill="#763E1A"/>
<path d="M35.2329 21.2422L46.1534 24.5548L49.7012 35.9473H40.3411L33.8918 36.0319L38.5821 26.507L35.2329 21.2422ZM14.7672 21.2422L11.4174 26.507L16.1083 36.0319L9.66196 35.9473H0.318604L3.84653 24.555L14.7672 21.2422ZM31.911 6.81934L28.8565 15.4145L28.2083 27.0255L27.9602 30.6649L27.9405 39.9619H22.0594L22.0403 30.6824L21.7915 27.0225L21.143 15.4145L18.0889 6.81934H31.911Z" fill="#F5841F"/>
</svg>
