<svg width="60" height="61" viewBox="0 0 60 61" fill="none" xmlns="http://www.w3.org/2000/svg">
<path d="M30 60.5C46.5685 60.5 60 47.0685 60 30.5C60 13.9315 46.5685 0.5 30 0.5C13.4315 0.5 0 13.9315 0 30.5C0 47.0685 13.4315 60.5 30 60.5Z" fill="url(#paint0_linear_853_10122)"/>
<path d="M51.4772 30.8655H46.1886C46.1886 20.0877 37.421 11.3511 26.6047 11.3511C15.9225 11.3511 7.23774 19.8738 7.02518 30.467C6.80528 41.417 17.1149 50.9256 28.1053 50.9256H29.4877C39.177 50.9256 52.1637 43.3676 54.1927 34.1586C54.5674 32.4611 53.2218 30.8655 51.4772 30.8655ZM18.7456 31.3457C18.7456 32.7869 17.5626 33.9657 16.1162 33.9657C14.6698 33.9657 13.4868 32.7864 13.4868 31.3457V27.107C13.4868 25.6658 14.6698 24.487 16.1162 24.487C17.5626 24.487 18.7456 25.6658 18.7456 27.107V31.3457ZM27.8759 31.3457C27.8759 32.7869 26.693 33.9657 25.2466 33.9657C23.8001 33.9657 22.6172 32.7864 22.6172 31.3457V27.107C22.6172 25.6658 23.8006 24.487 25.2466 24.487C26.693 24.487 27.8759 25.6658 27.8759 27.107V31.3457Z" fill="url(#paint1_linear_853_10122)"/>
<defs>
<linearGradient id="paint0_linear_853_10122" x1="30" y1="0.5" x2="30" y2="60.5" gradientUnits="userSpaceOnUse">
<stop stop-color="#534BB1"/>
<stop offset="1" stop-color="#551BF9"/>
</linearGradient>
<linearGradient id="paint1_linear_853_10122" x1="30.6387" y1="11.3511" x2="30.6387" y2="50.9256" gradientUnits="userSpaceOnUse">
<stop stop-color="white"/>
<stop offset="1" stop-color="white" stop-opacity="0.82"/>
</linearGradient>
</defs>
</svg>
