<svg width="12" height="8" viewBox="0 0 12 8" fill="none" xmlns="http://www.w3.org/2000/svg">
<path d="M5.66973 7.27499C5.53639 7.27499 5.40706 7.24999 5.28173 7.19999C5.15639 7.14999 5.05239 7.08332 4.96973 6.99999L0.369726 2.39999C0.186393 2.21666 0.0947266 1.98332 0.0947266 1.69999C0.0947266 1.41666 0.186393 1.18332 0.369726 0.99999C0.55306 0.816657 0.786393 0.724991 1.06973 0.724991C1.35306 0.724991 1.58639 0.816657 1.76973 0.99999L5.66973 4.89999L9.56973 0.99999C9.75306 0.816657 9.98639 0.724991 10.2697 0.724991C10.5531 0.724991 10.7864 0.816657 10.9697 0.99999C11.1531 1.18332 11.2447 1.41666 11.2447 1.69999C11.2447 1.98332 11.1531 2.21666 10.9697 2.39999L6.36973 6.99999C6.26973 7.09999 6.16139 7.17099 6.04473 7.21299C5.92806 7.25499 5.80306 7.27566 5.66973 7.27499Z" fill="#FAF8F2"/>
</svg>
