<svg width="24" height="26" viewBox="0 0 24 26" fill="none" xmlns="http://www.w3.org/2000/svg">
<path d="M6.99598 12.875V16.813C4.97869 16.5563 3.13483 15.5411 1.83916 13.9738C0.543498 12.4064 -0.106744 10.4045 0.0205966 8.37497C0.147938 6.34541 1.04331 4.44049 2.52472 3.04738C4.00614 1.65427 5.96242 0.877521 7.99598 0.875C9.98791 0.874942 11.9082 1.618 13.3813 2.95884C14.8544 4.29968 15.7742 6.14184 15.961 8.125H11.746C10.4862 8.125 9.27802 8.62545 8.38722 9.51624C7.49642 10.407 6.99598 11.6152 6.99598 12.875ZM11.746 9.125C10.7514 9.125 9.79759 9.52009 9.09433 10.2233C8.39106 10.9266 7.99598 11.8804 7.99598 12.875V21.375C7.99598 22.3696 8.39106 23.3234 9.09433 24.0267C9.79759 24.7299 10.7514 25.125 11.746 25.125H20.246C21.2405 25.125 22.1944 24.7299 22.8976 24.0267C23.6009 23.3234 23.996 22.3696 23.996 21.375V12.875C23.996 11.8804 23.6009 10.9266 22.8976 10.2233C22.1944 9.52009 21.2405 9.125 20.246 9.125H11.746Z" fill="#FAF8F2"/>
</svg>
