<svg width="24" height="24" viewBox="0 0 24 24" fill="none" xmlns="http://www.w3.org/2000/svg">
<path d="M9.59 15.58L6.12461 12.1146C5.73506 11.7251 5.10343 11.7244 4.71251 12.1125V12.1125C4.31963 12.5026 4.31811 13.1381 4.70961 13.5296L9.59 18.41L18.5174 9.38414C18.9031 8.99424 18.9013 8.36605 18.5135 7.97827V7.97827C18.1227 7.58738 17.4883 7.58923 17.0997 7.98239L9.59 15.58Z" fill="#FAF8F2"/>
<mask id="mask0_642_3241" style="mask-type:luminance" maskUnits="userSpaceOnUse" x="4" y="7" width="15" height="12">
<path d="M9.59 15.58L6.12461 12.1146C5.73506 11.7251 5.10343 11.7244 4.71251 12.1125V12.1125C4.31963 12.5026 4.31811 13.1381 4.70961 13.5296L9.59 18.41L18.5174 9.38414C18.9031 8.99424 18.9013 8.36605 18.5135 7.97827V7.97827C18.1227 7.58738 17.4883 7.58923 17.0997 7.98239L9.59 15.58Z" fill="white"/>
</mask>
<g mask="url(#mask0_642_3241)">
<rect width="24" height="24" fill="#FAF8F2"/>
</g>
</svg>
