<svg width="21" height="20" viewBox="0 0 21 20" fill="none" xmlns="http://www.w3.org/2000/svg">
<path d="M10.5 20C16.0228 20 20.5 15.5228 20.5 10C20.5 4.47715 16.0228 0 10.5 0C4.97715 0 0.5 4.47715 0.5 10C0.5 15.5228 4.97715 20 10.5 20Z" fill="#2E3148"/>
<path d="M10.5125 3.4563C9.70313 3.4563 9.04688 6.39192 9.04688 10.0125C9.04688 13.6332 9.70313 16.5688 10.5125 16.5688C11.3213 16.5688 11.9775 13.6332 11.9775 10.0125C11.9775 6.39192 11.3213 3.4563 10.5125 3.4563ZM10.6137 16.1982C10.5213 16.3219 10.4281 16.2294 10.4281 16.2294C10.0556 15.7969 9.86937 14.995 9.86937 14.995C9.2175 12.8969 9.3725 8.39255 9.3725 8.39255C9.67875 4.81692 10.2362 3.97192 10.4256 3.78442C10.445 3.76519 10.4706 3.75345 10.4978 3.75128C10.5251 3.7491 10.5522 3.75664 10.5744 3.77255C10.8494 3.96817 11.0806 4.78317 11.0806 4.78317C11.7619 7.31317 11.7 9.68817 11.7 9.68817C11.7619 11.7557 11.3587 14.0694 11.3587 14.0694C11.0481 15.8282 10.6137 16.1982 10.6137 16.1982Z" fill="white"/>
<path d="M16.1987 6.75005C15.7956 6.04755 12.9237 6.93942 9.78187 8.7413C6.64 10.5432 4.42375 12.5725 4.82562 13.275C5.22875 13.9775 8.10125 13.0857 11.2431 11.2838C14.385 9.48192 16.6012 7.45192 16.1987 6.75005ZM5.19687 13.1782C5.04312 13.1594 5.07812 13.0319 5.07812 13.0319C5.26687 12.4944 5.86937 11.9332 5.86937 11.9332C7.365 10.3238 11.35 8.21692 11.35 8.21692C14.6037 6.70317 15.6144 6.76692 15.8706 6.83692C15.8971 6.84419 15.9201 6.86062 15.9356 6.88329C15.951 6.90596 15.9579 6.93339 15.955 6.96067C15.9237 7.2963 15.33 7.90255 15.33 7.90255C13.4763 9.75317 11.385 10.8825 11.385 10.8825C9.6225 11.965 7.41437 12.7657 7.41437 12.7657C5.73437 13.3707 5.19687 13.1782 5.19687 13.1782Z" fill="white"/>
<path d="M16.1844 13.2983C16.5906 12.5983 14.38 10.5589 11.2481 8.74327C8.11686 6.92827 5.24561 6.02577 4.83998 6.72702C4.43373 7.42889 6.64498 9.46639 9.77748 11.282C12.9106 13.097 15.7787 13.9995 16.1844 13.2983ZM5.10936 6.99764C5.04873 6.85514 5.17561 6.82077 5.17561 6.82077C5.73623 6.71452 6.52373 6.95639 6.52373 6.95639C8.66561 7.44389 12.485 9.83639 12.485 9.83639C15.4256 11.8939 15.8769 12.8008 15.9444 13.0576C15.9512 13.084 15.9485 13.112 15.9367 13.1366C15.9249 13.1612 15.9048 13.1808 15.88 13.192C15.5737 13.3326 14.7519 13.1233 14.7519 13.1233C12.2206 12.4445 10.1962 11.2014 10.1962 11.2014C8.37748 10.2201 6.57873 8.71077 6.57873 8.71077C5.21186 7.55952 5.10998 6.99827 5.10998 6.99827L5.10873 6.99764H5.10936Z" fill="white"/>
<path d="M10.4969 10.7681C10.9228 10.7681 11.2681 10.4228 11.2681 9.99684C11.2681 9.57089 10.9228 9.22559 10.4969 9.22559C10.0709 9.22559 9.72565 9.57089 9.72565 9.99684C9.72565 10.4228 10.0709 10.7681 10.4969 10.7681Z" fill="white"/>
<path d="M13.6594 7.66016C14.0045 7.66016 14.2844 7.38033 14.2844 7.03516C14.2844 6.68998 14.0045 6.41016 13.6594 6.41016C13.3142 6.41016 13.0344 6.68998 13.0344 7.03516C13.0344 7.38033 13.3142 7.66016 13.6594 7.66016Z" fill="white"/>
<path d="M6.31622 9.23389C6.6614 9.23389 6.94122 8.95406 6.94122 8.60889C6.94122 8.26371 6.6614 7.98389 6.31622 7.98389C5.97105 7.98389 5.69122 8.26371 5.69122 8.60889C5.69122 8.95406 5.97105 9.23389 6.31622 9.23389Z" fill="white"/>
<path d="M9.58685 14.9102C9.93203 14.9102 10.2119 14.6303 10.2119 14.2852C10.2119 13.94 9.93203 13.6602 9.58685 13.6602C9.24167 13.6602 8.96185 13.94 8.96185 14.2852C8.96185 14.6303 9.24167 14.9102 9.58685 14.9102Z" fill="white"/>
</svg>
