<svg width="18" height="10" viewBox="0 0 18 10" fill="none" xmlns="http://www.w3.org/2000/svg">
<path d="M9.01143 9.99998C8.80787 9.99998 8.61041 9.96181 8.41906 9.88547C8.22772 9.80914 8.06894 9.70735 7.94273 9.58013L0.919846 2.55725C0.639948 2.27735 0.5 1.92111 0.5 1.48855C0.5 1.05598 0.639948 0.699743 0.919846 0.419846C1.19974 0.139948 1.55598 0 1.98855 0C2.42111 0 2.77735 0.139948 3.05725 0.419846L9.01143 6.37403L14.9656 0.419846C15.2455 0.139948 15.6017 0 16.0343 0C16.4669 0 16.8231 0.139948 17.103 0.419846C17.3829 0.699743 17.5229 1.05598 17.5229 1.48855C17.5229 1.92111 17.3829 2.27735 17.103 2.55725L10.0801 9.58013C9.92746 9.7328 9.76206 9.8412 9.58395 9.90532C9.40583 9.96944 9.21499 10.001 9.01143 9.99998Z" fill="#FAF8F2"/>
</svg>
