<svg width="22" height="20" viewBox="0 0 22 20" fill="none" xmlns="http://www.w3.org/2000/svg">
<path d="M9.85454 0.0513468C5.37407 0.554155 1.81956 3.93442 1.09273 8.38005C0.76416 10.3863 1.06784 12.4722 1.95895 14.3092C2.31241 15.036 2.46674 15.2352 2.79033 15.3995C3.09401 15.5488 3.46738 15.5687 4.18426 15.4741C4.67711 15.4094 4.84637 15.3298 4.97581 15.1157C5.07039 14.9614 5.07537 14.8469 5.07537 12.1436C5.07537 8.97745 5.06541 9.07203 5.45372 8.77831L5.63792 8.63394L6.54895 8.61901C7.62426 8.59909 7.80348 8.6439 8.04742 9.01229L8.18681 9.22636L8.20175 12.0092C8.21668 14.6079 8.22166 14.7871 8.30131 14.7573C8.34612 14.7423 8.48551 14.7025 8.60997 14.6776C8.9236 14.6079 9.12771 14.4785 9.2223 14.2694C9.29697 14.1101 9.30693 13.7616 9.30693 10.6402C9.30693 7.38439 9.31191 7.18028 9.40152 6.98612C9.4513 6.87162 9.57078 6.72725 9.66039 6.66253C9.82467 6.54803 9.8645 6.54305 10.8253 6.52812C11.8011 6.51318 11.826 6.51318 11.9952 6.62769C12.0898 6.6924 12.2192 6.82184 12.279 6.91145L12.3935 7.08071V10.2668V13.448L12.5329 13.4131C12.7967 13.3484 13.3145 13.0646 13.414 12.9252C13.5136 12.7858 13.5136 12.7062 13.5385 8.86792L13.5634 4.95L13.6779 4.7658C13.882 4.43225 14.0861 4.37749 15.0718 4.37749C15.9779 4.37749 16.1173 4.40238 16.3463 4.61645C16.63 4.88528 16.625 4.80563 16.625 8.161V11.2525L17.1229 10.8692C18.6014 9.73913 20.0153 8.27053 20.2642 7.61339C20.4085 7.24002 20.3687 6.92141 20.1098 6.26925C19.0445 3.58096 16.854 1.49008 14.121 0.549177C12.7669 0.0812168 11.2037 -0.0980024 9.85454 0.0513468Z" fill="#FAF8F2" fill-opacity="0.3"/>
<path d="M5.11743 17.958C8.38642 17.8426 16.0782 15.9504 20.6932 9.30478C22.77 12.6507 15.1552 24.7652 5.11743 17.958Z" fill="#FAF8F2" fill-opacity="0.3"/>
</svg>
