<svg width="65" height="49" viewBox="0 0 65 49" fill="none" xmlns="http://www.w3.org/2000/svg">
<path d="M58.5 48.335C61.75 48.335 64.5 45.71 64.5 42.335V6.33496C64.5 3.08496 61.75 0.334961 58.5 0.334961H6.49999C3.12499 0.334961 0.499992 3.08496 0.499992 6.33496V42.335C0.499992 45.71 3.12499 48.335 6.49999 48.335H58.5ZM14.5 7.33496C18.25 7.33496 21.5 10.585 21.5 14.335C21.5 18.21 18.25 21.335 14.5 21.335C10.625 21.335 7.49999 18.21 7.49999 14.335C7.49999 10.585 10.625 7.33496 14.5 7.33496ZM8.49999 40.335V34.335L17.375 25.46C18 24.835 18.875 24.835 19.5 25.46L26.5 32.335L43.375 15.46C44 14.835 44.875 14.835 45.5 15.46L56.5 26.335V40.335H8.49999Z" fill="#D9D9D9"/>
</svg>
