<svg width="24" height="24" viewBox="0 0 24 24" fill="none" xmlns="http://www.w3.org/2000/svg">
<path fill-rule="evenodd" clip-rule="evenodd" d="M16.1249 12C16.1249 11.8011 16.0459 11.6103 15.9053 11.4697C15.7646 11.329 15.5739 11.25 15.3749 11.25H4.40195L6.36295 9.57C6.4378 9.50591 6.4993 9.42771 6.54393 9.33986C6.58856 9.25201 6.61545 9.15622 6.62307 9.05798C6.63068 8.95973 6.61887 8.86095 6.58831 8.76727C6.55775 8.67359 6.50903 8.58685 6.44495 8.512C6.38086 8.43714 6.30266 8.37565 6.21481 8.33101C6.12696 8.28638 6.03117 8.25949 5.93293 8.25188C5.83469 8.24426 5.7359 8.25607 5.64222 8.28664C5.54854 8.3172 5.4618 8.36591 5.38695 8.43L1.88695 11.43C1.80461 11.5004 1.73851 11.5878 1.69318 11.6862C1.64786 11.7846 1.62439 11.8917 1.62439 12C1.62439 12.1083 1.64786 12.2154 1.69318 12.3138C1.73851 12.4122 1.80461 12.4996 1.88695 12.57L5.38695 15.57C5.53812 15.6994 5.73452 15.7635 5.93293 15.7481C6.13134 15.7327 6.31552 15.6392 6.44495 15.488C6.57437 15.3368 6.63844 15.1404 6.62307 14.942C6.60769 14.7436 6.51412 14.5594 6.36295 14.43L4.40295 12.75H15.3749C15.5739 12.75 15.7646 12.671 15.9053 12.5303C16.0459 12.3897 16.1249 12.1989 16.1249 12Z" fill="url(#paint0_linear_707_1883)"/>
<path d="M9.375 8C9.375 8.702 9.375 9.053 9.544 9.306C9.61679 9.41478 9.71022 9.50821 9.819 9.581C10.072 9.75 10.423 9.75 11.125 9.75H15.375C15.9717 9.75 16.544 9.98705 16.966 10.409C17.3879 10.831 17.625 11.4033 17.625 12C17.625 12.5967 17.3879 13.169 16.966 13.591C16.544 14.0129 15.9717 14.25 15.375 14.25H11.125C10.423 14.25 10.072 14.25 9.819 14.418C9.71012 14.4911 9.61668 14.5849 9.544 14.694C9.375 14.947 9.375 15.298 9.375 16C9.375 18.828 9.375 20.243 10.254 21.121C11.132 22 12.546 22 15.374 22H16.374C19.204 22 20.617 22 21.496 21.121C22.375 20.243 22.375 18.828 22.375 16V8C22.375 5.172 22.375 3.757 21.496 2.879C20.617 2 19.203 2 16.375 2H15.375C12.546 2 11.132 2 10.254 2.879C9.375 3.757 9.375 5.172 9.375 8Z" fill="url(#paint1_linear_707_1883)"/>
<defs>
<linearGradient id="paint0_linear_707_1883" x1="8.87467" y1="8.24963" x2="8.87467" y2="15.7504" gradientUnits="userSpaceOnUse">
<stop stop-color="#FAF3A0"/>
<stop offset="1" stop-color="#DFCD81"/>
</linearGradient>
<linearGradient id="paint1_linear_707_1883" x1="15.875" y1="2" x2="15.875" y2="22" gradientUnits="userSpaceOnUse">
<stop stop-color="#FAF3A0"/>
<stop offset="1" stop-color="#DFCD81"/>
</linearGradient>
</defs>
</svg>
