<svg width="16" height="26" viewBox="0 0 16 26" fill="none" xmlns="http://www.w3.org/2000/svg">
<path d="M5.53516 21.75H9.28516V25.5H5.53516V21.75ZM8.03516 0.5C14.7227 0.775 17.6352 7.525 13.6602 12.5875C12.6227 13.8375 10.9477 14.6625 10.1227 15.7125C9.28516 16.75 9.28516 18 9.28516 19.25H5.53516C5.53516 17.1625 5.53516 15.4 6.37266 14.15C7.19766 12.9 8.87266 12.1625 9.91016 11.3375C12.9352 8.5375 12.1852 4.575 8.03516 4.25C7.04059 4.25 6.08677 4.64509 5.38351 5.34835C4.68024 6.05161 4.28516 7.00544 4.28516 8H0.535156C0.535156 6.01088 1.32533 4.10322 2.73186 2.6967C4.13838 1.29018 6.04603 0.5 8.03516 0.5Z" fill="#747069"/>
</svg>
