<svg width="34" height="28" viewBox="0 0 34 28" fill="none" xmlns="http://www.w3.org/2000/svg">
<g filter="url(#filter0_d_833_17663)">
<path d="M13.5796 25.4381L13.0821 21.458C12.8126 21.3544 12.5585 21.23 12.3197 21.0849C12.0808 20.9398 11.8478 20.7843 11.6206 20.6185L7.9204 22.1732L4.5 16.2652L7.70274 13.8399C7.68201 13.6948 7.67164 13.5546 7.67164 13.4195V12.5812C7.67164 12.446 7.68201 12.3059 7.70274 12.1608L4.5 9.73539L7.9204 3.82743L11.6206 5.38215C11.8487 5.21631 12.0871 5.06084 12.3358 4.91573C12.5846 4.77063 12.8333 4.64625 13.0821 4.5426L13.5796 0.5625H20.4204L20.9179 4.5426C21.1874 4.64625 21.4415 4.77063 21.6803 4.91573C21.9192 5.06084 22.1522 5.21631 22.3794 5.38215L26.0796 3.82743L29.5 9.73539L26.2973 12.1608C26.318 12.3059 26.3284 12.446 26.3284 12.5812V13.4195C26.3284 13.5546 26.3076 13.6948 26.2662 13.8399L29.4689 16.2652L26.0485 22.1732L22.3794 20.6185C22.1513 20.7843 21.9129 20.9398 21.6642 21.0849C21.4154 21.23 21.1667 21.3544 20.9179 21.458L20.4204 25.4381H13.5796ZM17.0622 17.3535C18.2645 17.3535 19.2906 16.9286 20.1405 16.0787C20.9905 15.2288 21.4154 14.2026 21.4154 13.0003C21.4154 11.798 20.9905 10.7719 20.1405 9.92195C19.2906 9.07204 18.2645 8.64708 17.0622 8.64708C15.8391 8.64708 14.8076 9.07204 13.9677 9.92195C13.1277 10.7719 12.7081 11.798 12.709 13.0003C12.709 14.2026 13.1285 15.2288 13.9677 16.0787C14.8068 16.9286 15.8383 17.3535 17.0622 17.3535Z" fill="#FAF8F2" fill-opacity="0.4" shape-rendering="crispEdges"/>
</g>
<defs>
<filter id="filter0_d_833_17663" x="0.5" y="0.5625" width="33" height="32.876" filterUnits="userSpaceOnUse" color-interpolation-filters="sRGB">
<feFlood flood-opacity="0" result="BackgroundImageFix"/>
<feColorMatrix in="SourceAlpha" type="matrix" values="0 0 0 0 0 0 0 0 0 0 0 0 0 0 0 0 0 0 127 0" result="hardAlpha"/>
<feOffset dy="4"/>
<feGaussianBlur stdDeviation="2"/>
<feComposite in2="hardAlpha" operator="out"/>
<feColorMatrix type="matrix" values="0 0 0 0 0 0 0 0 0 0 0 0 0 0 0 0 0 0 0.25 0"/>
<feBlend mode="normal" in2="BackgroundImageFix" result="effect1_dropShadow_833_17663"/>
<feBlend mode="normal" in="SourceGraphic" in2="effect1_dropShadow_833_17663" result="shape"/>
</filter>
</defs>
</svg>
