<svg width="20" height="20" viewBox="0 0 20 20" fill="none" xmlns="http://www.w3.org/2000/svg">
<path d="M10 20C15.5228 20 20 15.5228 20 10C20 4.47715 15.5228 0 10 0C4.47715 0 0 4.47715 0 10C0 15.5228 4.47715 20 10 20Z" fill="#66F9A1"/>
<path d="M6.20314 12.3044C6.27224 12.2362 6.36544 12.198 6.46251 12.1981H15.4413C15.4775 12.1976 15.513 12.208 15.5432 12.2279C15.5735 12.2478 15.5971 12.2762 15.611 12.3097C15.625 12.3431 15.6285 12.3799 15.6213 12.4154C15.6141 12.4509 15.5965 12.4834 15.5706 12.5087L13.7969 14.2681C13.7279 14.3365 13.6347 14.3749 13.5375 14.375H4.55876C4.52257 14.3753 4.4871 14.3648 4.45691 14.3448C4.42671 14.3249 4.40316 14.2964 4.38927 14.2629C4.37537 14.2295 4.37177 14.1927 4.37892 14.1572C4.38606 14.1217 4.40364 14.0892 4.42939 14.0638L6.20314 12.3044ZM6.20314 5.73125C6.27224 5.66307 6.36544 5.6249 6.46251 5.625H15.4413C15.6044 5.625 15.6863 5.82125 15.5706 5.93625L13.7969 7.69563C13.7278 7.7638 13.6346 7.80198 13.5375 7.80188H4.55876C4.5227 7.80206 4.48739 7.79151 4.45733 7.77158C4.42727 7.75165 4.40382 7.72323 4.38995 7.68993C4.37608 7.65664 4.37243 7.61997 4.37945 7.58459C4.38647 7.54922 4.40385 7.51672 4.42939 7.49125L6.20314 5.73125ZM13.7969 8.99688C13.7278 8.9287 13.6346 8.89052 13.5375 8.89063H4.55876C4.52257 8.89032 4.4871 8.90082 4.45691 8.92078C4.42671 8.94074 4.40316 8.96926 4.38927 9.00269C4.37537 9.03611 4.37177 9.07292 4.37892 9.10841C4.38606 9.14389 4.40364 9.17643 4.42939 9.20187L6.20314 10.9613C6.27189 11.0294 6.36564 11.0675 6.46251 11.0675H15.4413C15.4775 11.0678 15.5129 11.0573 15.5431 11.0373C15.5733 11.0174 15.5969 10.9889 15.6108 10.9554C15.6247 10.922 15.6283 10.8852 15.6211 10.8497C15.614 10.8142 15.5964 10.7817 15.5706 10.7562L13.7969 8.99688Z" fill="white"/>
</svg>
