<svg width="22" height="21" viewBox="0 0 22 21" fill="none" xmlns="http://www.w3.org/2000/svg">
<path d="M21.5874 7.52952C21.4976 7.25299 21.3286 7.00897 21.1012 6.82784C20.8738 6.64671 20.5981 6.53648 20.3085 6.51088L14.8088 6.03675L12.653 0.91021C12.5407 0.641211 12.3514 0.411435 12.1088 0.249814C11.8663 0.0881931 11.5813 0.00195313 11.2898 0.00195312C10.9984 0.00195313 10.7134 0.0881931 10.4708 0.249814C10.2283 0.411435 10.0389 0.641211 9.92671 0.91021L7.77738 6.03675L2.27116 6.51366C1.98042 6.53809 1.70336 6.64782 1.47473 6.82908C1.2461 7.01034 1.07608 7.25507 0.985985 7.53258C0.895889 7.81009 0.889731 8.10802 0.968283 8.38902C1.04683 8.67001 1.2066 8.92156 1.42755 9.11212L5.6049 12.7626L4.35289 18.1836C4.28669 18.4673 4.30558 18.7642 4.4072 19.0372C4.50883 19.3102 4.68867 19.5472 4.92425 19.7185C5.15984 19.8899 5.4407 19.988 5.73174 20.0006C6.02277 20.0132 6.31106 19.9397 6.56057 19.7893L11.2834 16.9186L16.0163 19.7893C16.2658 19.9397 16.5541 20.0132 16.8452 20.0006C17.1362 19.988 17.4171 19.8899 17.6526 19.7185C17.8882 19.5472 18.0681 19.3102 18.1697 19.0372C18.2713 18.7642 18.2902 18.4673 18.224 18.1836L16.9729 12.757L21.1493 9.11212C21.3703 8.9209 21.5297 8.66864 21.6076 8.38705C21.6856 8.10546 21.6785 7.80711 21.5874 7.52952ZM20.1779 7.99254L16.0015 11.6374C15.7982 11.8142 15.647 12.0431 15.5641 12.2995C15.4813 12.5558 15.4698 12.8299 15.5311 13.0922L16.7859 18.5225L12.0566 15.6518C11.8259 15.5113 11.5609 15.4369 11.2908 15.4369C11.0206 15.4369 10.7557 15.5113 10.5249 15.6518L5.80214 18.5225L7.04859 13.0959C7.10984 12.8336 7.09841 12.5595 7.01552 12.3032C6.93264 12.0468 6.78142 11.8179 6.57816 11.6411L2.39988 7.99809C2.39954 7.99533 2.39954 7.99253 2.39988 7.98976L7.90424 7.51378C8.17298 7.49009 8.43015 7.39348 8.64801 7.23437C8.86588 7.07525 9.03616 6.85968 9.1405 6.61089L11.2898 1.49084L13.4382 6.61089C13.5426 6.85968 13.7129 7.07525 13.9307 7.23437C14.1486 7.39348 14.4058 7.49009 14.6745 7.51378L20.1798 7.98976V7.99624L20.1779 7.99254Z" fill="#FAF8F2" fill-opacity="0.3"/>
</svg>
