<svg width="25" height="24" viewBox="0 0 25 24" fill="none" xmlns="http://www.w3.org/2000/svg">
<path d="M24.8085 9.03308C24.7009 8.70125 24.498 8.40842 24.2251 8.19106C23.9522 7.97371 23.6214 7.84143 23.2739 7.81071L16.6742 7.24175L14.0873 1.08991C13.9526 0.76711 13.7254 0.491379 13.4343 0.297433C13.1432 0.103488 12.8013 0 12.4515 0C12.1017 0 11.7598 0.103488 11.4687 0.297433C11.1776 0.491379 10.9504 0.76711 10.8158 1.08991L8.23656 7.24175L1.62911 7.81405C1.28022 7.84336 0.947748 7.97504 0.673392 8.19255C0.399036 8.41007 0.195008 8.70375 0.0868928 9.03676C-0.0212226 9.36977 -0.0286124 9.72728 0.0656502 10.0645C0.159913 10.4017 0.351632 10.7035 0.616765 10.9322L5.62959 15.3127L4.12718 21.8179C4.04774 22.1584 4.07041 22.5147 4.19236 22.8423C4.3143 23.1699 4.53012 23.4543 4.81282 23.6599C5.09551 23.8655 5.43255 23.9832 5.7818 23.9983C6.13104 24.0134 6.47699 23.9253 6.77639 23.7448L12.4437 20.3L18.1233 23.7448C18.4227 23.9253 18.7687 24.0134 19.1179 23.9983C19.4671 23.9832 19.8042 23.8655 20.0869 23.6599C20.3696 23.4543 20.5854 23.1699 20.7073 22.8423C20.8293 22.5147 20.8519 22.1584 20.7725 21.8179L19.2712 15.3061L24.2829 10.9322C24.548 10.7027 24.7394 10.4 24.8329 10.0621C24.9264 9.72421 24.9179 9.36619 24.8085 9.03308ZM23.1172 9.5887L18.1055 13.9626C17.8616 14.1747 17.6801 14.4494 17.5807 14.757C17.4812 15.0646 17.4675 15.3935 17.541 15.7083L19.0467 22.2247L13.3716 18.7798C13.0947 18.6112 12.7768 18.522 12.4526 18.522C12.1284 18.522 11.8105 18.6112 11.5336 18.7798L5.86628 22.2247L7.36201 15.7128C7.43552 15.3979 7.42181 15.069 7.32234 14.7614C7.22287 14.4538 7.04142 14.1792 6.7975 13.967L1.78357 9.59537C1.78316 9.59205 1.78316 9.58869 1.78357 9.58537L8.3888 9.01419C8.71129 8.98576 9.01989 8.86983 9.28133 8.67889C9.54276 8.48796 9.74711 8.22927 9.87232 7.93073L12.4515 1.78666L15.0296 7.93073C15.1548 8.22927 15.3591 8.48796 15.6206 8.67889C15.882 8.86983 16.1906 8.98576 16.5131 9.01419L23.1195 9.58537V9.59315L23.1172 9.5887Z" fill="url(#paint0_linear_707_1354)"/>
<defs>
<linearGradient id="paint0_linear_707_1354" x1="12.4487" y1="0" x2="12.4487" y2="24" gradientUnits="userSpaceOnUse">
<stop stop-color="#FAF3A0"/>
<stop offset="1" stop-color="#DFCD81"/>
</linearGradient>
</defs>
</svg>
