<svg width="24" height="24" viewBox="0 0 24 24" fill="none" xmlns="http://www.w3.org/2000/svg">
<path d="M23.8769 23.0791C23.7959 23.2195 23.6793 23.336 23.5389 23.4171C23.3986 23.4981 23.2393 23.5407 23.0772 23.5407H0.922181C0.760219 23.5405 0.60115 23.4977 0.460949 23.4166C0.320748 23.3356 0.204348 23.219 0.123439 23.0787C0.0425297 22.9384 -4.15502e-05 22.7793 3.04306e-08 22.6173C4.16111e-05 22.4554 0.0426945 22.2963 0.123676 22.156C1.88108 19.1177 4.5893 16.9392 7.74986 15.9064C6.18651 14.9757 4.97188 13.5576 4.2925 11.8698C3.61313 10.182 3.50658 8.31785 3.9892 6.56362C4.47183 4.8094 5.51696 3.2621 6.96408 2.15934C8.4112 1.05659 10.1803 0.459351 11.9997 0.459351C13.8191 0.459351 15.5882 1.05659 17.0353 2.15934C18.4825 3.2621 19.5276 4.8094 20.0102 6.56362C20.4928 8.31785 20.3863 10.182 19.7069 11.8698C19.0275 13.5576 17.8129 14.9757 16.2496 15.9064C19.4101 16.9392 22.1183 19.1177 23.8757 22.156C23.9569 22.2962 23.9998 22.4554 24 22.6174C24.0002 22.7794 23.9577 22.9387 23.8769 23.0791Z" fill="url(#paint0_linear_707_956)"/>
<defs>
<linearGradient id="paint0_linear_707_956" x1="12" y1="0.459351" x2="12" y2="23.5407" gradientUnits="userSpaceOnUse">
<stop stop-color="#FAF3A0"/>
<stop offset="1" stop-color="#DFCD81"/>
</linearGradient>
</defs>
</svg>
